<svg width="200" height="200" viewBox="0 0 200 200" fill="none" xmlns="http://www.w3.org/2000/svg">
<rect x="0.5" y="0.5" width="199" height="199" rx="19.5" fill="#9402FD" stroke="black"/>
<g clip-path="url(#clip0_4_23)">
<path d="M113.479 52L147.455 53.1042L113.479 85.599V52ZM111.01 53.8141V87.2948H79.4253C90.196 76.378 100.525 65.0319 111.01 53.8141ZM145.642 58.3491L150 59.8477L134.265 69.1937L145.642 58.3491ZM60.4126 62.0561H67.3159L83.3976 79.6442L75.9159 87.2948H60.4126C60.4138 78.8764 60.4126 70.4701 60.4126 62.0561ZM57.9444 63.5941V70.8896H50L57.9444 63.5941ZM62.1481 89.8186H110.432L96.9725 126.612L62.1481 89.8186ZM111.01 95.4972V147L95.2756 138.403C100.522 124.099 105.761 109.804 111.01 95.4972V95.4972Z" fill="#F0D687"/>
</g>
<defs>
<clipPath id="clip0_4_23">
<rect width="100" height="95.0001" fill="white" transform="translate(50 52)"/>
</clipPath>
</defs>
</svg>
