<svg width="1774" height="1080" viewBox="0 0 1774 1080" fill="none" xmlns="http://www.w3.org/2000/svg">
<rect x="0.5" y="0.5" width="1772.46" height="1079" rx="19.5" fill="#9402FD" fill-opacity="0.9" stroke="white"/>
<g clip-path="url(#clip0_4_12)">
<path d="M645.696 421L730.637 423.761L645.696 504.998V421ZM639.526 425.535V509.237H560.563C587.49 481.945 613.312 453.58 639.526 425.535ZM726.105 436.873L737 440.619L697.663 463.984L726.105 436.873ZM513.032 446.14H530.29L570.494 490.111L551.79 509.237H513.032C513.034 488.191 513.032 467.175 513.032 446.14ZM506.861 449.985V468.224H487L506.861 449.985ZM517.37 515.547H638.08L604.431 607.53L517.37 515.547ZM639.526 529.743V658.5L600.189 637.008C613.305 601.249 626.403 565.511 639.526 529.743V529.743Z" fill="#F0D687"/>
<path d="M834.92 456C837.149 456 841.792 456.248 848.85 456.743V476.431C845.383 476.06 842.225 475.874 839.377 475.874C835.539 475.874 832.877 476.71 831.391 478.381C829.905 480.053 829.162 482.932 829.162 487.018V492.59H847.364V510.235H829.162V588.615H802.788V510.235H787V492.59H802.788V485.532C802.788 476.122 805.605 468.847 811.238 463.708C816.872 458.57 824.767 456 834.92 456V456ZM914.972 489.99C917.201 489.99 919.12 490.299 920.73 490.918V515.435C917.882 514.816 914.724 514.507 911.257 514.507C893.922 514.507 885.254 524.784 885.254 545.339V588.615H858.88V492.59H883.954V510.42H884.326C886.926 504.229 891.043 499.276 896.677 495.562C902.311 491.847 908.409 489.99 914.972 489.99H914.972ZM958.248 456V477.731H931.874V456H958.248ZM958.248 492.59V588.615H931.874V492.59H958.248ZM1017.31 489.99C1030.56 489.99 1040.1 495.128 1045.92 505.406H1046.29V492.59H1071.36V582.672C1071.36 596.54 1067.06 607.064 1058.45 614.247C1049.85 621.429 1037.62 625.019 1021.77 625.019C1009.63 625.019 999.636 622.109 991.773 616.29C983.911 610.47 979.731 603.103 979.236 594.187H1005.42C1007.53 602.979 1014.09 607.374 1025.11 607.374C1031.92 607.374 1037.16 605.362 1040.81 601.338C1044.46 597.314 1046.29 591.587 1046.29 584.157V570.97H1045.92C1043.31 575.676 1039.51 579.328 1034.49 581.929C1029.48 584.529 1023.69 585.829 1017.13 585.829C1004.25 585.829 994.188 581.619 986.944 573.199C979.701 564.779 976.079 552.893 976.079 537.538C976.079 523.917 979.886 512.588 987.501 503.548C995.117 494.509 1005.05 489.99 1017.31 489.99V489.99ZM1002.45 537.166C1002.45 546.206 1004.34 553.263 1008.12 558.34C1011.89 563.417 1017.13 565.955 1023.81 565.955C1030.62 565.955 1036.07 563.51 1040.16 558.619C1044.24 553.728 1046.29 547.258 1046.29 539.21C1046.29 529.551 1044.34 522.245 1040.44 517.293C1036.54 512.34 1030.93 509.863 1023.63 509.863C1016.82 509.863 1011.59 512.433 1007.93 517.571C1004.28 522.71 1002.45 529.242 1002.45 537.166H1002.45ZM1118.91 492.59V547.01C1118.91 554.44 1120.09 560.198 1122.44 564.284C1124.79 568.37 1129.25 570.413 1135.81 570.413C1143.12 570.413 1148.35 568.246 1151.51 563.912C1154.66 559.579 1156.24 552.645 1156.24 543.11V492.59H1182.62V588.615H1157.54V575.242H1156.99C1150.42 585.891 1140.58 591.215 1127.45 591.215C1114.95 591.215 1106 588.027 1100.61 581.65C1095.23 575.273 1092.53 565.46 1092.53 552.211V492.59H1118.91V492.59ZM1242.05 489.99C1254.93 489.99 1264.99 492.59 1272.23 497.791C1279.48 502.991 1283.53 510.606 1284.4 520.636H1259.33C1258.95 516.055 1257.28 512.742 1254.31 510.699C1251.34 508.656 1247 507.635 1241.31 507.635C1236.36 507.635 1232.67 508.378 1230.26 509.863C1227.84 511.349 1226.64 513.578 1226.64 516.55C1226.64 518.779 1227.44 520.636 1229.05 522.122C1230.66 523.608 1233.11 524.908 1236.39 526.022C1239.67 527.137 1243.29 528.066 1247.25 528.808C1259.26 531.161 1267.74 533.576 1272.7 536.052C1277.65 538.529 1281.27 541.5 1283.56 544.967C1285.85 548.435 1287 552.707 1287 557.783C1287 568.556 1283.07 576.821 1275.21 582.579C1267.34 588.337 1256.66 591.216 1243.17 591.216C1229.05 591.216 1218.06 588.182 1210.2 582.115C1202.34 576.047 1198.28 567.813 1198.03 557.412H1223.11C1223.11 562.365 1225.03 566.296 1228.86 569.206C1232.7 572.116 1237.53 573.571 1243.35 573.571C1248.31 573.571 1252.42 572.487 1255.7 570.32C1258.98 568.153 1260.63 565.151 1260.63 561.312C1260.63 558.836 1259.6 556.793 1257.56 555.183C1255.52 553.573 1252.64 552.149 1248.92 550.911C1245.21 549.672 1239.45 548.248 1231.65 546.639C1225.46 545.4 1219.95 543.729 1215.12 541.624C1210.29 539.519 1206.61 536.764 1204.07 533.359C1201.53 529.954 1200.26 525.775 1200.26 520.821C1200.26 514.506 1201.78 508.997 1204.81 504.291C1207.85 499.585 1212.49 496.026 1218.74 493.611C1225 491.197 1232.77 489.989 1242.05 489.989L1242.05 489.99Z" fill="white"/>
</g>
<defs>
<clipPath id="clip0_4_12">
<rect width="800" height="237.5" fill="white" transform="translate(487 421)"/>
</clipPath>
</defs>
</svg>
