<svg xmlns="http://www.w3.org/2000/svg" width="320" height="95.00007629394531" viewBox="0 0 320 95.00007629394531" class="css-1j8o68f"><defs id="SvgjsDefs4501"></defs><g id="SvgjsG4502" featurekey="5TMTKC-0" transform="matrix(1.25,0,0,1.25,-12.499991655349731,-14.999923706054688)" fill="#f0d687"><g xmlns="http://www.w3.org/2000/svg" transform="translate(0,-952.36218)"><path d="m 60.7828,964.36215 27.1809,0.8834 -27.1809,25.9958 z m -1.9745,1.4513 0,26.7845 -25.2681,0 c 8.6166,-8.7334 16.8796,-17.8103 25.2681,-26.7845 z m 27.7053,3.628 3.4864,1.1989 -12.5877,7.4768 z m -68.1835,2.9656 5.5226,0 12.8654,14.0705 -5.9854,6.1204 -12.4026,0 c 9e-4,-6.7347 0,-13.4597 0,-20.1909 z m -1.9746,1.2304 0,5.8364 -6.3555,0 z m 3.363,20.9796 38.627,0 -10.7675,29.43465 z m 39.0898,4.54286 0,41.20229 -12.5878,-6.8775 c 4.1972,-11.443 8.3886,-22.879 12.5878,-34.32479 z" style="text-indent:0;text-transform:none;direction:ltr;block-progression:tb;baseline-shift:baseline;color:;enable-background:accumulate;" fill="#f0d687" fill-opacity="1" stroke="none" marker="none" visibility="visible" display="inline" overflow="visible"></path></g></g><g id="SvgjsG4503" featurekey="7UBp9i-0" transform="matrix(3.7147092819213867,0,0,3.7147092819213867,120,-7.24813401203372)" fill="#ffffff"><path d="M5.16 5.720000000000001 c0.24 0 0.74 0.02668 1.5 0.08002 l0 2.12 c-0.37334 -0.04 -0.71334 -0.06 -1.02 -0.06 c-0.41334 0 -0.7 0.09 -0.86 0.27 s-0.24 0.49 -0.24 0.93 l0 0.6 l1.96 0 l0 1.9 l-1.96 0 l0 8.44 l-2.84 0 l0 -8.44 l-1.7 0 l0 -1.9 l1.7 0 l0 -0.76 c0 -1.0133 0.30334 -1.7967 0.91 -2.35 s1.4567 -0.83 2.55 -0.83 z M13.780000000000001 9.38 c0.24 0 0.44668 0.03334 0.62002 0.1 l0 2.64 c-0.30666 -0.06666 -0.64666 -0.1 -1.02 -0.1 c-1.8667 0 -2.8 1.1067 -2.8 3.32 l0 4.66 l-2.84 0 l0 -10.34 l2.7 0 l0 1.92 l0.04 0 c0.28 -0.66666 0.72334 -1.2 1.33 -1.6 s1.2633 -0.6 1.97 -0.6 z M18.44 5.720000000000001 l0 2.34 l-2.84 0 l0 -2.34 l2.84 0 z M18.44 9.66 l0 10.34 l-2.84 0 l0 -10.34 l2.84 0 z M24.8 9.38 c1.4267 0 2.4534 0.55332 3.08 1.66 l0.04 0 l0 -1.38 l2.7 0 l0 9.7 c0 1.4933 -0.46334 2.6266 -1.39 3.4 s-2.2434 1.16 -3.95 1.16 c-1.3067 0 -2.3834 -0.31334 -3.23 -0.94 s-1.2967 -1.42 -1.35 -2.38 l2.82 0 c0.22666 0.94666 0.93332 1.42 2.12 1.42 c0.73334 0 1.2967 -0.21666 1.69 -0.65 s0.59 -1.05 0.59 -1.85 l0 -1.42 l-0.04 0 c-0.28 0.50666 -0.69 0.9 -1.23 1.18 s-1.1633 0.42 -1.87 0.42 c-1.3867 0 -2.47 -0.45334 -3.25 -1.36 s-1.17 -2.1866 -1.17 -3.84 c0 -1.4667 0.41 -2.6866 1.23 -3.66 s1.89 -1.46 3.21 -1.46 z M23.200000000000003 14.46 c0 0.97334 0.20336 1.7333 0.61002 2.28 s0.97 0.82 1.69 0.82 c0.73334 0 1.32 -0.26334 1.76 -0.79 s0.66 -1.2233 0.66 -2.09 c0 -1.04 -0.21 -1.8267 -0.63 -2.36 s-1.0233 -0.8 -1.81 -0.8 c-0.73334 0 -1.2967 0.27666 -1.69 0.83 s-0.59 1.2567 -0.59 2.11 z M35.74 9.66 l0 5.86 c0 0.8 0.12666 1.42 0.38 1.86 s0.73334 0.66 1.44 0.66 c0.78666 0 1.35 -0.23334 1.69 -0.7 s0.51 -1.2133 0.51 -2.24 l0 -5.44 l2.84 0 l0 10.34 l-2.7 0 l0 -1.44 l-0.06 0 c-0.70666 1.1467 -1.7667 1.72 -3.18 1.72 c-1.3467 0 -2.31 -0.34334 -2.89 -1.03 s-0.87 -1.7433 -0.87 -3.17 l0 -6.42 l2.84 0 z M49 9.38 c1.3867 0 2.47 0.28002 3.25 0.84002 s1.2167 1.38 1.31 2.46 l-2.7 0 c-0.04 -0.49334 -0.22 -0.85 -0.54 -1.07 s-0.78666 -0.33 -1.4 -0.33 c-0.53334 0 -0.93 0.08 -1.19 0.24 s-0.39 0.4 -0.39 0.72 c0 0.24 0.08666 0.44 0.26 0.6 s0.43668 0.3 0.79002 0.42 s0.74334 0.22 1.17 0.3 c1.2933 0.25334 2.2066 0.51334 2.74 0.78 s0.92334 0.58666 1.17 0.96 s0.37 0.83334 0.37 1.38 c0 1.16 -0.42334 2.05 -1.27 2.67 s-1.9967 0.93 -3.45 0.93 c-1.52 0 -2.7034 -0.32666 -3.55 -0.98 s-1.2833 -1.54 -1.31 -2.66 l2.7 0 c0 0.53334 0.20666 0.95668 0.62 1.27 s0.93334 0.47 1.56 0.47 c0.53334 0 0.97668 -0.11666 1.33 -0.35 s0.53 -0.55668 0.53 -0.97002 c0 -0.26666 -0.11 -0.48666 -0.33 -0.66 s-0.53 -0.32668 -0.93 -0.46002 s-1.02 -0.28668 -1.86 -0.46002 c-0.66666 -0.13334 -1.26 -0.31334 -1.78 -0.54 s-0.91666 -0.52332 -1.19 -0.88998 s-0.41 -0.81666 -0.41 -1.35 c0 -0.68 0.16334 -1.2733 0.49 -1.78 s0.82666 -0.89 1.5 -1.15 s1.51 -0.39 2.51 -0.39 z"></path></g></svg>